<svg xmlns="http://www.w3.org/2000/svg" width="256" height="256" viewBox="0 0 256 256">
<rect width="256" height="256" fill="none"/>
<path d="M 92.0 176.0 Q 84.0 156.0 74.0 146.0" stroke="#8c8a55" stroke-width="5.0" fill="none" stroke-linejoin="round" stroke-linecap="round"/>
<path d="M 92.0 176.0 Q 92.0 154.0 92.0 140.0" stroke="#8c8a55" stroke-width="5.0" fill="none" stroke-linejoin="round" stroke-linecap="round"/>
<path d="M 92.0 176.0 Q 100.0 156.0 110.0 146.0" stroke="#8c8a55" stroke-width="5.0" fill="none" stroke-linejoin="round" stroke-linecap="round"/>
<path d="M 128.0 160.0 Q 120.0 140.0 110.0 130.0" stroke="#8c8a55" stroke-width="5.0" fill="none" stroke-linejoin="round" stroke-linecap="round"/>
<path d="M 128.0 160.0 Q 128.0 138.0 128.0 124.0" stroke="#8c8a55" stroke-width="5.0" fill="none" stroke-linejoin="round" stroke-linecap="round"/>
<path d="M 128.0 160.0 Q 136.0 140.0 146.0 130.0" stroke="#8c8a55" stroke-width="5.0" fill="none" stroke-linejoin="round" stroke-linecap="round"/>
<path d="M 164.0 176.0 Q 156.0 156.0 146.0 146.0" stroke="#8c8a55" stroke-width="5.0" fill="none" stroke-linejoin="round" stroke-linecap="round"/>
<path d="M 164.0 176.0 Q 164.0 154.0 164.0 140.0" stroke="#8c8a55" stroke-width="5.0" fill="none" stroke-linejoin="round" stroke-linecap="round"/>
<path d="M 164.0 176.0 Q 172.0 156.0 182.0 146.0" stroke="#8c8a55" stroke-width="5.0" fill="none" stroke-linejoin="round" stroke-linecap="round"/>
<line x1="70.0" y1="180.0" x2="186.0" y2="180.0" stroke="#8c8a55" stroke-width="4.0" stroke-linecap="round"/>
</svg>