<svg xmlns="http://www.w3.org/2000/svg" width="256" height="256" viewBox="0 0 256 256">
<rect width="256" height="256" fill="none"/>
<line x1="94.0" y1="170.0" x2="94.0" y2="142.0" stroke="#7f6b89" stroke-width="4.5" stroke-linecap="round"/>
<path d="M 94.0 136.0 Q 84.0 126.0 90.0 118.0" stroke="#7f6b89" stroke-width="4.0" fill="none" stroke-linejoin="round" stroke-linecap="round"/>
<path d="M 94.0 128.0 Q 104.0 120.0 98.0 110.0" stroke="#7f6b89" stroke-width="4.0" fill="none" stroke-linejoin="round" stroke-linecap="round"/>
<line x1="124.0" y1="170.0" x2="124.0" y2="134.0" stroke="#7f6b89" stroke-width="4.5" stroke-linecap="round"/>
<path d="M 124.0 128.0 Q 114.0 118.0 120.0 110.0" stroke="#7f6b89" stroke-width="4.0" fill="none" stroke-linejoin="round" stroke-linecap="round"/>
<path d="M 124.0 120.0 Q 134.0 112.0 128.0 102.0" stroke="#7f6b89" stroke-width="4.0" fill="none" stroke-linejoin="round" stroke-linecap="round"/>
<line x1="156.0" y1="170.0" x2="156.0" y2="146.0" stroke="#7f6b89" stroke-width="4.5" stroke-linecap="round"/>
<path d="M 156.0 140.0 Q 146.0 130.0 152.0 122.0" stroke="#7f6b89" stroke-width="4.0" fill="none" stroke-linejoin="round" stroke-linecap="round"/>
<path d="M 156.0 132.0 Q 166.0 124.0 160.0 114.0" stroke="#7f6b89" stroke-width="4.0" fill="none" stroke-linejoin="round" stroke-linecap="round"/>
<path d="M 70.0 172.0 Q 92.0 156.0 112.0 172.0 Q 134.0 154.0 152.0 172.0 Q 176.0 154.0 192.0 172.0" stroke="#7f6b89" stroke-width="4.0" fill="none" stroke-linejoin="round" stroke-linecap="round"/>
</svg>