<svg xmlns="http://www.w3.org/2000/svg" width="256" height="256" viewBox="-64 -64 128 128" color="#2F2924" role="img" aria-label="Renown">
  <title>Renown</title>
  <desc>Laurel</desc>
  <g fill="none" stroke="#8f7440" stroke-linecap="round" stroke-linejoin="round">
    <path d="M -10 45 C -52 15 -42 -28 -12 -48" stroke="#8f7440" stroke-width="6" fill="none" stroke-linecap="round" stroke-linejoin="round" />
    <path d="M 10 45 C 52 15 42 -28 12 -48" stroke="#8f7440" stroke-width="6" fill="none" stroke-linecap="round" stroke-linejoin="round" />
    <path d="M -18 30 Q -36 20 -40 5" stroke="#8f7440" stroke-width="4" fill="none" stroke-linecap="round" stroke-linejoin="round" />
    <path d="M -24 13 Q -42 3 -46 -12" stroke="#8f7440" stroke-width="4" fill="none" stroke-linecap="round" stroke-linejoin="round" />
    <path d="M -30 -4 Q -48 -14 -52 -29" stroke="#8f7440" stroke-width="4" fill="none" stroke-linecap="round" stroke-linejoin="round" />
    <path d="M -35 -21 Q -53 -31 -57 -46" stroke="#8f7440" stroke-width="4" fill="none" stroke-linecap="round" stroke-linejoin="round" />
    <path d="M 18 30 Q 36 20 40 5" stroke="#8f7440" stroke-width="4" fill="none" stroke-linecap="round" stroke-linejoin="round" />
    <path d="M 24 13 Q 42 3 46 -12" stroke="#8f7440" stroke-width="4" fill="none" stroke-linecap="round" stroke-linejoin="round" />
    <path d="M 30 -4 Q 48 -14 52 -29" stroke="#8f7440" stroke-width="4" fill="none" stroke-linecap="round" stroke-linejoin="round" />
    <path d="M 35 -21 Q 53 -31 57 -46" stroke="#8f7440" stroke-width="4" fill="none" stroke-linecap="round" stroke-linejoin="round" />
  </g>
</svg>
