<svg xmlns="http://www.w3.org/2000/svg" width="256" height="256" viewBox="0 0 256 256"><rect width="256" height="256" fill="none"/><path d="M 118 186 C 82 156 88 116 112 118 C 118 120 121 124 123 128 C 119 135 111 146 104 156 C 99 164 103 175 118 186" stroke="#7b4b49" stroke-width="10" fill="none" stroke-linejoin="round" stroke-linecap="round"/><path d="M 138 186 C 174 156 168 116 144 118 C 138 120 135 124 133 128 C 137 135 145 146 152 156 C 157 164 153 175 138 186" stroke="#7b4b49" stroke-width="10" fill="none" stroke-linejoin="round" stroke-linecap="round"/><line x1="126" y1="126" x2="118" y2="144" stroke="#7b4b49" stroke-width="6" stroke-linecap="round"/><line x1="130" y1="126" x2="138" y2="144" stroke="#7b4b49" stroke-width="6" stroke-linecap="round"/></svg>